<svg xmlns="http://www.w3.org/2000/svg" viewBox="0 0 713.6 314">
    <g data-name="Group 23">
        <path class="bottom-text" d="M237.3 166.5h4.45a18.43 18.43 0 006.72-1.18 10.6 10.6 0 004.83-3.62 10.02 10.02 0 001.8-6.1q0-5.4-3.52-8t-9.33-2.6h-9.75v34h4.8zm4.9-17.45a9.63 9.63 0 015.9 1.52q2 1.53 2 5.23a6.3 6.3 0 01-2.32 5.05 9.4 9.4 0 01-5.83 1.65h-4.65v-13.45zm21.15 13.9a19.55 19.55 0 014.3-3.08 9.37 9.37 0 014.3-1.27l-1.05-3.85a8.88 8.88 0 00-4.07 1.25 22.86 22.86 0 00-4.03 2.7l-1.55-3.95h-2.7V179h4.8zm33.8 3.95a14.27 14.27 0 01-1.5 6.65 10.81 10.81 0 01-4.27 4.5 12.73 12.73 0 01-6.48 1.6 12.36 12.36 0 01-6.37-1.6 10.59 10.59 0 01-4.18-4.5 14.8 14.8 0 01-1.45-6.7 14.27 14.27 0 011.5-6.65 10.86 10.86 0 014.25-4.5 12.6 12.6 0 016.45-1.6 12.36 12.36 0 016.38 1.6 10.74 10.74 0 014.2 4.5 14.58 14.58 0 011.47 6.7zm-12.2 8.65a6.43 6.43 0 005.28-2.45 9.7 9.7 0 002.02-6.15 9.96 9.96 0 00-1.9-6.33 6.3 6.3 0 00-5.25-2.42 6.43 6.43 0 00-5.28 2.45 9.7 9.7 0 00-2.02 6.15 9.96 9.96 0 001.9 6.32 6.3 6.3 0 005.25 2.43zm44.35-21.6a6.74 6.74 0 015.7 2.47 10.52 10.52 0 011.9 6.58v16h-4.8v-15.55a7.58 7.58 0 00-.88-4 3.18 3.18 0 00-2.92-1.4 7.24 7.24 0 00-3.3.97 19.84 19.84 0 00-3.7 2.58q.05.45.05 1.4v16h-4.8v-15.55a7.58 7.58 0 00-.88-4 3.18 3.18 0 00-2.92-1.4 7.28 7.28 0 00-3.48 1.07 23.04 23.04 0 00-3.87 2.78V179h-4.8v-24.25h3.35l.85 3.2a16.73 16.73 0 014.33-2.88 11 11 0 014.62-1.12 7.52 7.52 0 014.08 1.05 6.54 6.54 0 012.52 2.95 16.73 16.73 0 014.32-2.88 11 11 0 014.63-1.12zm33.05 12.7a14.52 14.52 0 00-2.67-9.03q-2.68-3.52-7.93-3.52a11.63 11.63 0 00-6.17 1.6 10.46 10.46 0 00-4.03 4.5 15.12 15.12 0 00-1.4 6.65q0 5.85 3.4 9.3t9.75 3.45a16.93 16.93 0 008.8-2.65l-1.5-3.5a39.32 39.32 0 01-3.97 1.67 10.53 10.53 0 01-3.33.48q-3.9 0-5.87-2.05a8.86 8.86 0 01-2.28-5.6h17.2zm-17.1-1.95a8.1 8.1 0 011.98-4.78 5.72 5.72 0 014.37-1.72q5.15 0 6.1 6.5zm26.55-9.65v-7.15L367 149v6.05h-3.45l.05 3.65h3.4v13.55a7.4 7.4 0 002.08 5.62 7.9 7.9 0 005.67 1.98 8.2 8.2 0 002.17-.33 9.57 9.57 0 001.93-.72l-1.25-3.65a7.02 7.02 0 01-2.35.55 3.05 3.05 0 01-2.6-1.13 5 5 0 01-.85-3.07v-12.8h5.9l-1.5-3.65zm23.95-1.1q3.95 0 5.88 2.45a10.4 10.4 0 011.92 6.6v16h-4.8v-15.55a7.55 7.55 0 00-.87-4.03 3.41 3.41 0 00-3.13-1.37 7.9 7.9 0 00-3.7 1.07 21.61 21.61 0 00-3.95 2.78V179h-4.8v-34.75l4.8-.55v13.75a16.05 16.05 0 014.18-2.55 11.56 11.56 0 014.47-.95zm33.25 12.7a14.52 14.52 0 00-2.67-9.03q-2.68-3.52-7.93-3.52a11.63 11.63 0 00-6.17 1.6 10.46 10.46 0 00-4.03 4.5 15.12 15.12 0 00-1.4 6.65q0 5.85 3.4 9.3t9.75 3.45a16.93 16.93 0 008.8-2.65l-1.5-3.5a39.32 39.32 0 01-3.98 1.67 10.53 10.53 0 01-3.32.48q-3.9 0-5.88-2.05a8.86 8.86 0 01-2.27-5.6H429zm-17.1-1.95a8.1 8.1 0 011.98-4.78 5.72 5.72 0 014.37-1.72q5.15 0 6.1 6.5zm36.8 7.15a21.61 21.61 0 01-3.95 2.77 7.9 7.9 0 01-3.7 1.08 3.41 3.41 0 01-3.13-1.38 7.55 7.55 0 01-.87-4.02v-15.55h-4.8v16a10.4 10.4 0 001.93 6.6q1.92 2.45 5.87 2.45a11.55 11.55 0 004.85-1.13 17.44 17.44 0 004.4-2.87l.85 3.2h3.35v-24.25h-4.8zm8.45 5.6a11.24 11.24 0 003.83 1.6 17.79 17.79 0 004.17.6q4.75 0 7.3-1.9a6.28 6.28 0 002.55-5.35q0-4.9-8.2-7.85a15.84 15.84 0 01-3.67-1.65 2.49 2.49 0 01-1.33-1.85 2.6 2.6 0 011.23-2.18 5.25 5.25 0 013.12-.87 11.35 11.35 0 013.2.42 24.1 24.1 0 013.2 1.23l1.5-3.25a12.65 12.65 0 00-3.77-1.65 15.28 15.28 0 00-4.03-.65 10.89 10.89 0 00-6.72 1.87 6.13 6.13 0 00-2.48 5.18q0 4.7 7.95 7.3 5.4 1.7 5.4 4.2a2.55 2.55 0 01-1.43 2.25 7.43 7.43 0 01-3.82.85 14.9 14.9 0 01-6.5-1.65zm49.1-17.35H495.2v-11.4h14.25l-.7-3.7H490.4v34h4.8v-15.25h11.65zm28.9 6.8a14.27 14.27 0 01-1.5 6.65 10.81 10.81 0 01-4.28 4.5 12.73 12.73 0 01-6.47 1.6 12.36 12.36 0 01-6.38-1.6 10.59 10.59 0 01-4.17-4.5 14.8 14.8 0 01-1.45-6.7 14.27 14.27 0 011.5-6.65 10.86 10.86 0 014.25-4.5 12.6 12.6 0 016.45-1.6 12.36 12.36 0 016.38 1.6 10.74 10.74 0 014.2 4.5 14.58 14.58 0 011.47 6.7zm-12.2 8.65a6.43 6.43 0 005.27-2.45 9.7 9.7 0 002.03-6.15 9.96 9.96 0 00-1.9-6.33 6.3 6.3 0 00-5.25-2.42 6.43 6.43 0 00-5.28 2.45 9.7 9.7 0 00-2.02 6.15 9.96 9.96 0 001.9 6.32 6.3 6.3 0 005.25 2.43zm31.9-3.7a21.61 21.61 0 01-3.95 2.77 7.9 7.9 0 01-3.7 1.08 3.41 3.41 0 01-3.13-1.38 7.55 7.55 0 01-.87-4.02v-15.55h-4.8v16a10.4 10.4 0 001.92 6.6q1.93 2.45 5.88 2.45a11.55 11.55 0 004.85-1.13 17.44 17.44 0 004.4-2.87l.85 3.2h3.35v-24.25h-4.8zm14.55-9.95a21.62 21.62 0 013.95-2.78 7.9 7.9 0 013.7-1.07 3.41 3.41 0 013.13 1.37 7.55 7.55 0 01.87 4.03V179h4.8v-16a10.4 10.4 0 00-1.93-6.6q-1.92-2.45-5.87-2.45a11.55 11.55 0 00-4.85 1.12 17.44 17.44 0 00-4.4 2.88l-.85-3.2h-3.35V179h4.8zm41.9-18.15V179h-2.75l-.95-1.85a11.41 11.41 0 01-3.33 1.85 9.59 9.59 0 01-3.12.65 12.46 12.46 0 01-6.43-1.6 10.55 10.55 0 01-4.17-4.53 15.19 15.19 0 01-1.45-6.82 13.97 13.97 0 011.5-6.6 10.77 10.77 0 014.25-4.43 12.55 12.55 0 016.35-1.57 9.35 9.35 0 012.47.4 12.86 12.86 0 012.78 1.15v-11.4zm-17.3 22.9a10.33 10.33 0 001.87 6.45 6.26 6.26 0 005.28 2.45 7.77 7.77 0 002.9-.5 7.96 7.96 0 002.4-1.55v-13.4a7.5 7.5 0 00-2.43-1.45 8.6 8.6 0 00-2.87-.45 6.35 6.35 0 00-5.25 2.37 9.42 9.42 0 00-1.9 6.08zm24.9-6.6a17.22 17.22 0 017-1.65q2.7 0 3.77 1.57a8 8 0 011.08 4.53H625a9.94 9.94 0 00-6.47 1.97 6.73 6.73 0 00-2.43 5.53 7.33 7.33 0 002.15 5.52q2.15 2.08 6.3 2.08a9.47 9.47 0 003.8-.85 12.35 12.35 0 003.3-2.05l.6 2.3h3.35v-16.45a7.61 7.61 0 00-1.28-4.25 8.82 8.82 0 00-3.52-3.08 11.02 11.02 0 00-5-1.12 19.44 19.44 0 00-4.33.62 11.92 11.92 0 00-3.92 1.53zm1.5 11.95a4.24 4.24 0 011.2-3.05 4.36 4.36 0 013.3-1.25h5.9v4.9a10.64 10.64 0 01-2.95 2.32 7.17 7.17 0 01-3.4.88 3.9 3.9 0 01-3-1.13 3.79 3.79 0 01-1.05-2.67zm25.95-16.95v-7.15l-4.8 1.1v6.05h-3.45l.05 3.65h3.4v13.55a7.4 7.4 0 002.07 5.62 7.9 7.9 0 005.68 1.98 8.2 8.2 0 002.17-.33 9.57 9.57 0 001.93-.72l-1.25-3.65a7.02 7.02 0 01-2.35.55 3.05 3.05 0 01-2.6-1.13 5 5 0 01-.85-3.07v-12.8h5.9l-1.5-3.65zm12.35-4.65a2.98 2.98 0 002.15-.88 2.85 2.85 0 00.9-2.12 2.85 2.85 0 00-.9-2.13 2.98 2.98 0 00-2.15-.87 2.81 2.81 0 00-2.1.87 2.94 2.94 0 00-.85 2.13 2.94 2.94 0 00.85 2.12 2.81 2.81 0 002.1.88zm2.5 28.6v-24.25h-4.85V179zm27.7-12.1a14.27 14.27 0 01-1.5 6.65 10.81 10.81 0 01-4.28 4.5 12.73 12.73 0 01-6.47 1.6 12.36 12.36 0 01-6.38-1.6 10.59 10.59 0 01-4.17-4.5 14.8 14.8 0 01-1.45-6.7 14.27 14.27 0 011.5-6.65 10.86 10.86 0 014.25-4.5 12.6 12.6 0 016.45-1.6 12.36 12.36 0 016.38 1.6 10.74 10.74 0 014.2 4.5 14.58 14.58 0 011.47 6.7zm-12.2 8.65a6.43 6.43 0 005.27-2.45 9.7 9.7 0 002.03-6.15 9.96 9.96 0 00-1.9-6.33 6.3 6.3 0 00-5.25-2.42 6.43 6.43 0 00-5.28 2.45 9.7 9.7 0 00-2.02 6.15 9.96 9.96 0 001.9 6.32 6.3 6.3 0 005.25 2.43zm20.45-13.65a21.62 21.62 0 013.95-2.78 7.9 7.9 0 013.7-1.07 3.41 3.41 0 013.13 1.37 7.55 7.55 0 01.87 4.03V179h4.8v-16a10.4 10.4 0 00-1.93-6.6q-1.92-2.45-5.87-2.45a11.55 11.55 0 00-4.85 1.12 17.44 17.44 0 00-4.4 2.88l-.85-3.2h-3.35V179h4.8z" data-name="Path 7"/>
        <path d="M243.95 200.76L239.18 213h2.34l1.08-2.88h4.64l1.1 3.06 2.34-.32-4.75-12.1zm2.57 7.47h-3.24l1.6-4.27zm13.5-7.94V213h-1.22l-.54-.8a3.75 3.75 0 01-2.52 1.02 4.24 4.24 0 01-3.21-1.24 4.63 4.63 0 01-1.18-3.34 5.25 5.25 0 01.53-2.4 3.82 3.82 0 011.54-1.63 4.75 4.75 0 012.4-.57 3.06 3.06 0 01.91.15 4.36 4.36 0 01.94.42v-4.12zm-6.26 8.35a2.96 2.96 0 00.55 1.87 1.81 1.81 0 001.52.7 2.38 2.38 0 00.9-.17 4.33 4.33 0 00.94-.54v-3.73a3.31 3.31 0 00-.9-.57 2.52 2.52 0 00-.94-.17 1.8 1.8 0 00-1.51.73 3 3 0 00-.56 1.88zm12.89 4.36l3.44-8.73h-2.47l-1.9 5.3-2.02-5.62-2.29.68 3.22 8.37zm5.49-6.23a6.5 6.5 0 011.22-.4 5.73 5.73 0 011.32-.17 1.37 1.37 0 011.01.37 1.46 1.46 0 01.39 1.03h-1.71a3.72 3.72 0 00-2.41.73 2.5 2.5 0 00-.9 2.06 2.73 2.73 0 00.79 2.06 3.27 3.27 0 002.36.77 3.2 3.2 0 002.3-1.16l.4.94h1.53v-5.74a2.83 2.83 0 00-.52-1.66 3.46 3.46 0 00-1.37-1.15 4.36 4.36 0 00-1.91-.41 7.52 7.52 0 00-1.64.24 4.94 4.94 0 00-1.5.55zm.92 3.62a1.2 1.2 0 01.35-.86 1.24 1.24 0 01.92-.36h1.77v1.33a2.7 2.7 0 01-1.93.86 1.14 1.14 0 01-.8-.28.9.9 0 01-.31-.69zm9.66-3.44a9.57 9.57 0 011.19-.75 2.47 2.47 0 011.15-.28 1.09 1.09 0 01.93.45 2.08 2.08 0 01.33 1.26V213h2.34v-5.47a4.44 4.44 0 00-.66-2.61 2.66 2.66 0 00-2.32-.94 5 5 0 00-1.64.33 6.98 6.98 0 00-1.73.9l-.4-.94h-1.53V213h2.34zm15.01-2a5.18 5.18 0 00-1.5-.66 5.8 5.8 0 00-1.52-.26 5.1 5.1 0 00-2.46.57 3.92 3.92 0 00-1.62 1.61 5.01 5.01 0 00-.56 2.43 4.96 4.96 0 00.56 2.42 3.88 3.88 0 001.62 1.6 5.17 5.17 0 002.46.56 6.35 6.35 0 001.57-.24 4 4 0 001.45-.66l-.66-1.7a8.28 8.28 0 01-1.23.45 4.31 4.31 0 01-1.11.15 2.05 2.05 0 01-1.62-.72 2.71 2.71 0 01-.63-1.86 2.76 2.76 0 01.64-1.87 2.04 2.04 0 011.6-.74 4.31 4.31 0 011.12.15 8.28 8.28 0 011.23.45zm2.56-1.92a1.3 1.3 0 00.94-.38 1.26 1.26 0 00.4-.94 1.26 1.26 0 00-.4-.93 1.3 1.3 0 00-.94-.38 1.25 1.25 0 00-.92.38 1.27 1.27 0 00-.38.93 1.27 1.27 0 00.38.94 1.25 1.25 0 00.92.38zm1.19 9.97v-8.73h-2.34V213zm4.35-6.05a9.57 9.57 0 011.2-.75 2.47 2.47 0 011.14-.28 1.09 1.09 0 01.93.45 2.08 2.08 0 01.33 1.26V213h2.34v-5.47a4.44 4.44 0 00-.66-2.61 2.66 2.66 0 00-2.32-.94 5 5 0 00-1.64.33 6.98 6.98 0 00-1.73.9l-.4-.94h-1.53V213h2.34zm16.02-2.68v9.14a3.27 3.27 0 01-1.26 2.77 5.44 5.44 0 01-3.38.96 8 8 0 01-1.8-.28 5.45 5.45 0 01-1.76-.71l.7-1.66a8.41 8.41 0 001.47.58 5.68 5.68 0 001.33.2 2.75 2.75 0 001.7-.52 1.63 1.63 0 00.65-1.35v-.74a3.6 3.6 0 01-1.93.56 4.24 4.24 0 01-3.21-1.24 4.63 4.63 0 01-1.18-3.34 5.25 5.25 0 01.53-2.4 3.82 3.82 0 011.54-1.63 4.75 4.75 0 012.4-.57 3.24 3.24 0 011.26.28 4.56 4.56 0 011.2.74l.52-.79zm-4.19 6.95a2.38 2.38 0 00.9-.18 4.33 4.33 0 00.94-.54v-3.73a3.31 3.31 0 00-.9-.57 2.52 2.52 0 00-.94-.17 1.8 1.8 0 00-1.5.73 3 3 0 00-.57 1.88 2.96 2.96 0 00.55 1.87 1.81 1.81 0 001.52.7zm16.04-10.75a6.18 6.18 0 00-3.13.87 5.6 5.6 0 00-2.12 2.28 7.16 7.16 0 00-.75 3.31 7.12 7.12 0 00.71 3.22 5.47 5.47 0 002.07 2.26 6 6 0 003.22.84 6.22 6.22 0 003.14-.85 5.63 5.63 0 002.11-2.27 7.08 7.08 0 00.76-3.32 7.18 7.18 0 00-.71-3.22 5.44 5.44 0 00-2.08-2.28 6.05 6.05 0 00-3.22-.84zm-3.57 6.45a5.3 5.3 0 01.5-2.35 3.87 3.87 0 011.31-1.57 3.15 3.15 0 011.8-.55 3.22 3.22 0 011.87.56 3.55 3.55 0 011.24 1.55 5.57 5.57 0 01.43 2.25 5.8 5.8 0 01-.48 2.47 3.38 3.38 0 01-1.3 1.51 3.46 3.46 0 01-1.83.5 3.25 3.25 0 01-1.87-.55 3.51 3.51 0 01-1.23-1.55 5.69 5.69 0 01-.44-2.27zm15.38-2.88a4.24 4.24 0 013.2 1.23 4.63 4.63 0 011.19 3.34 5.25 5.25 0 01-.53 2.41 3.82 3.82 0 01-1.54 1.62 4.75 4.75 0 01-2.4.58 3.1 3.1 0 01-1.13-.24 5.1 5.1 0 01-1.1-.6l-.47.62h-1.18v-12.51l2.32-.2v4.14a3.62 3.62 0 011.64-.4zm-.1 7.18a1.8 1.8 0 001.52-.73 3 3 0 00.56-1.88 2.96 2.96 0 00-.55-1.87 1.81 1.81 0 00-1.52-.7 2.81 2.81 0 00-1.55.52v4.15a2.7 2.7 0 001.55.5zm7.42-8.2a1.27 1.27 0 01-.93-.37 1.27 1.27 0 01-.38-.94 1.27 1.27 0 01.38-.93 1.27 1.27 0 01.93-.38 1.3 1.3 0 01.95.38 1.26 1.26 0 01.38.93 1.26 1.26 0 01-.38.94 1.3 1.3 0 01-.95.38zm1.19 10.18a3.98 3.98 0 01-.23 1.47 2.37 2.37 0 01-.84 1.02 6.13 6.13 0 01-1.74.8l-.92-1.78a2.59 2.59 0 00.91-.5 1.24 1.24 0 00.38-.63 4.38 4.38 0 00.08-.94v-8.37h2.36zm9.92-4.59a5.95 5.95 0 00-.43-2.31 3.64 3.64 0 00-1.34-1.65 3.85 3.85 0 00-2.21-.61 4.63 4.63 0 00-2.34.56 3.8 3.8 0 00-1.52 1.61 5.3 5.3 0 00-.53 2.43 4.4 4.4 0 001.29 3.36 5.3 5.3 0 003.77 1.22 5.42 5.42 0 001.83-.28 5.16 5.16 0 001.44-.8l-.68-1.7a7.46 7.46 0 01-1.24.58 3.97 3.97 0 01-1.3.2 2.91 2.91 0 01-1.85-.49 2.3 2.3 0 01-.78-1.4h5.88zm-5.87-.85a2.17 2.17 0 01.63-1.28 1.73 1.73 0 011.2-.44 1.65 1.65 0 011.19.43 2.4 2.4 0 01.63 1.3zm14.47-2.8a5.18 5.18 0 00-1.51-.67 5.8 5.8 0 00-1.51-.25 5.1 5.1 0 00-2.46.56 3.92 3.92 0 00-1.62 1.62 5.01 5.01 0 00-.57 2.43 4.96 4.96 0 00.57 2.42 3.88 3.88 0 001.62 1.59 5.17 5.17 0 002.46.56 6.35 6.35 0 001.56-.24 4 4 0 001.46-.66l-.66-1.7a8.28 8.28 0 01-1.23.46 4.31 4.31 0 01-1.11.14 2.05 2.05 0 01-1.62-.72 2.71 2.71 0 01-.63-1.85 2.76 2.76 0 01.63-1.88 2.04 2.04 0 011.62-.73 4.31 4.31 0 011.11.14 8.28 8.28 0 011.23.45zm4.09-.67v-2.49l-2.32.41v2.07h-1.17v1.8h1.17v4.13a2.97 2.97 0 00.91 2.32 3.68 3.68 0 002.56.83 3.33 3.33 0 00.96-.16 2.43 2.43 0 00.8-.38l-.68-1.69a2.19 2.19 0 01-.96.23 1.12 1.12 0 01-.94-.43 1.8 1.8 0 01-.33-1.13v-3.71h2.3l-.72-1.8zm5.36-1.26a1.3 1.3 0 00.95-.38 1.26 1.26 0 00.38-.93 1.26 1.26 0 00-.38-.94 1.3 1.3 0 00-.95-.38 1.25 1.25 0 00-.92.38 1.27 1.27 0 00-.37.94 1.27 1.27 0 00.37.93 1.25 1.25 0 00.92.38zm1.19 9.97v-8.73h-2.34V213zm6.44 0l3.44-8.73h-2.46l-1.9 5.3-2.02-5.62-2.29.68 3.22 8.37zm5.8-9.97a1.3 1.3 0 00.95-.38 1.26 1.26 0 00.39-.94 1.26 1.26 0 00-.4-.93 1.3 1.3 0 00-.94-.38 1.25 1.25 0 00-.91.38 1.27 1.27 0 00-.38.93 1.27 1.27 0 00.38.94 1.25 1.25 0 00.91.38zm1.19 9.97v-8.73h-2.34V213zm1.51-.68a4 4 0 001.46.66 6.35 6.35 0 001.56.24 4.4 4.4 0 002.7-.72 2.4 2.4 0 00.94-2.02 2.23 2.23 0 00-.85-1.76 6.9 6.9 0 00-2.12-1.2 7.5 7.5 0 01-1.02-.42q-.35-.18-.35-.42a.66.66 0 01.3-.53 1.2 1.2 0 01.75-.22 4.21 4.21 0 011.1.14 8.46 8.46 0 011.22.45l.7-1.57a5.2 5.2 0 00-1.5-.66 5.6 5.6 0 00-1.49-.25 3.96 3.96 0 00-2.48.7 2.33 2.33 0 00-.92 1.96 2 2 0 00.83 1.64 6.84 6.84 0 002.07 1.06q1.53.47 1.53 1.17 0 .36-.45.56a2.43 2.43 0 01-1 .2 5.8 5.8 0 01-2.28-.6zm18.81-8.34a2.63 2.63 0 012.15.8 3.7 3.7 0 01.66 2.39V213h-2.34v-5.36a2.51 2.51 0 00-.26-1.28.89.89 0 00-.82-.43 2 2 0 00-.99.25 12.9 12.9 0 00-1.15.75V213h-2.34v-5.36a2.51 2.51 0 00-.26-1.28.89.89 0 00-.82-.43 2 2 0 00-1 .25 12.69 12.69 0 00-1.16.77V213h-2.34v-8.73h1.53l.4.94a7.33 7.33 0 011.67-.9 4.4 4.4 0 011.51-.33 2.48 2.48 0 012.41 1.19 7.59 7.59 0 011.66-.87 4.36 4.36 0 011.49-.32z" data-name="Path 8"/>
    </g>
</svg>